<?xml version="1.0" encoding="UTF-8"?>
<svg width="100px" height="100px" viewBox="0 0 100 100" version="1.1" xmlns="http://www.w3.org/2000/svg" xmlns:xlink="http://www.w3.org/1999/xlink">
    <title>fb</title>
    <g id="fb" stroke="none" stroke-width="1" fill="none" fill-rule="evenodd">
        <g transform="translate(5.000000, 5.000000)" fill="#FFFFFF" fill-rule="nonzero" id="Shape">
            <path d="M47.4579492,89.9340819 L47.3943164,89.9374218 L47.4507422,89.9344335 L47.5171875,89.9307421 L47.4579492,89.9340819 Z M42.5492578,89.9344335 L42.6056836,89.9374218 L42.5420508,89.9340819 L42.4828125,89.9307421 L42.5492578,89.9344335 Z M42.1073437,89.9084178 L42.1715039,89.9124608 L42.1117383,89.9087694 L42.0516211,89.9049022 L42.1073437,89.9084178 Z M47.8882617,89.9087694 L47.8284961,89.9124608 L47.8926563,89.9084178 L47.9483789,89.9049022 L47.8882617,89.9087694 L47.8882617,89.9087694 Z M37.96875,89.4529677 C16.4673633,86.0733908 0,67.4445849 0,45.0000879 C0,20.1639066 20.1638672,0 45,0 C69.8361328,0 90,20.1639066 90,45.0000879 C90,67.4445849 73.5326367,86.0733908 52.03125,89.4529677 L52.03125,58.0079258 L62.5166016,58.0079258 L64.5117188,45.0000879 L52.03125,45.0000879 L52.03125,36.55888 C52.03125,33.0001816 53.7746484,29.5313077 59.364668,29.5313077 L65.0390625,29.5313077 L65.0390625,18.4570673 C65.0390625,18.4570673 59.889375,17.5781593 54.965918,17.5781593 C44.6869336,17.5781593 37.96875,23.807859 37.96875,35.086006 L37.96875,45.0000879 L26.5429688,45.0000879 L26.5429688,58.0079258 L37.96875,58.0079258 L37.96875,89.4529677 Z"></path>
        </g>
    </g>
</svg>