<svg width="25" height="25" viewBox="0 0 25 25" fill="none" xmlns="http://www.w3.org/2000/svg">
<g id="Frame">
<path id="Vector" d="M4.45061 7.16663C4.17901 7.16663 3.94651 7.26705 3.75308 7.46791C3.55967 7.66876 3.46296 7.91022 3.46296 8.19227C3.46296 8.47431 3.55967 8.71577 3.75308 8.91663C3.94651 9.11748 4.17901 9.21791 4.45061 9.21791C4.72222 9.21791 4.95473 9.11748 5.14815 8.91663C5.34156 8.71577 5.43828 8.47431 5.43828 8.19227C5.43828 7.91022 5.34156 7.66876 5.14815 7.46791C4.95473 7.26705 4.72222 7.16663 4.45061 7.16663ZM2.19753 17.5256L3.24074 15.7499C3.35596 15.5534 3.44239 15.3568 3.5 15.1602L3.85803 13.9295L4.93828 15.1025L5.88272 17.4551C5.92798 17.5704 5.99897 17.6624 6.09568 17.7307C6.19238 17.7991 6.30247 17.8333 6.42593 17.8333C6.59053 17.8333 6.73045 17.7735 6.84568 17.6538C6.96091 17.5342 7.01852 17.3888 7.01852 17.2179C7.01852 17.1453 7.00412 17.0683 6.97531 16.9872L6.11111 14.7756C6.05762 14.6345 6.01543 14.5395 5.98457 14.4904C5.95371 14.4412 5.88477 14.3568 5.77778 14.2371L4.56172 12.8782L4.9321 11.0705L5.27778 11.7692C5.34362 11.9145 5.43416 12.0192 5.54939 12.0833C5.57407 12.0961 6 12.3205 6.82716 12.7564C7.02469 12.8589 7.15432 12.9102 7.21605 12.9102C7.33128 12.9102 7.42593 12.8718 7.5 12.7948C7.57407 12.7179 7.61111 12.6196 7.61111 12.5C7.61111 12.3247 7.53292 12.1944 7.37654 12.1089L5.96296 11.3269L5.4074 10.0064C5.30452 9.77133 5.16873 9.64312 5 9.62175L3.58642 9.45509C3.45473 9.44227 3.27778 9.48287 3.05556 9.57688L1.56172 10.1923C1.47942 10.2265 1.39917 10.2841 1.32099 10.3653C1.2428 10.4465 1.19136 10.5299 1.16667 10.6153C0.841564 11.4871 0.627572 12.0683 0.524691 12.3589C0.50823 12.3974 0.5 12.4444 0.5 12.5C0.5 12.6111 0.539095 12.7072 0.617284 12.7884C0.695473 12.8696 0.788066 12.9102 0.895061 12.9102C0.977366 12.9102 1.0607 12.8899 1.14506 12.8493C1.22942 12.8088 1.28395 12.7564 1.30864 12.6922L1.93828 10.9743L3.23457 10.4679L2.32716 14.8718L1.16667 16.9231C1.11728 17.0213 1.09259 17.1196 1.09259 17.2179C1.09259 17.3888 1.15021 17.5342 1.26543 17.6538C1.38066 17.7735 1.52058 17.8333 1.68518 17.8333C1.9074 17.8333 2.07819 17.7307 2.19753 17.5256Z" fill="#0077b2"/>
<path id="Vector_2" d="M21.4521 3.61108H11.9283C11.255 3.61186 10.6095 3.87968 10.1334 4.3558C9.65729 4.83191 9.38947 5.47744 9.38867 6.15076V16.3095C9.38947 16.9828 9.65729 17.6283 10.1334 18.1045C10.6095 18.5806 11.255 18.8484 11.9283 18.8492H12.8808L11.7379 20.3729C11.6369 20.5077 11.5935 20.677 11.6173 20.8437C11.6411 21.0105 11.7302 21.1609 11.8648 21.2618C11.9996 21.3629 12.1689 21.4063 12.3356 21.3825C12.5023 21.3586 12.6527 21.2696 12.7537 21.1349L14.468 18.8492H18.9125L20.6268 21.1349C20.7278 21.2696 20.8782 21.3586 21.0449 21.3825C21.2116 21.4063 21.3809 21.3629 21.5157 21.2618C21.6504 21.1609 21.7394 21.0105 21.7632 20.8437C21.7871 20.677 21.7437 20.5077 21.6426 20.3729L20.4998 18.8492H21.4521C22.1255 18.8484 22.771 18.5806 23.2472 18.1045C23.7232 17.6283 23.9911 16.9828 23.9919 16.3095V6.15076C23.9911 5.47744 23.7232 4.83191 23.2472 4.3558C22.771 3.87968 22.1255 3.61186 21.4521 3.61108ZM10.6585 11.2301V8.05553H16.0553V11.2301H10.6585ZM17.3252 8.05553H22.722V11.2301H17.3252V8.05553ZM11.9283 4.88092H21.4521C21.7888 4.88131 22.1116 5.01521 22.3497 5.25327C22.5877 5.49133 22.7216 5.8141 22.722 6.15076V6.78569H10.6585V6.15076C10.6589 5.8141 10.7928 5.49133 11.0309 5.25327C11.2689 5.01521 11.5917 4.88131 11.9283 4.88092ZM21.4521 17.5793H11.9283C11.5917 17.579 11.2689 17.445 11.0309 17.207C10.7928 16.9689 10.6589 16.6462 10.6585 16.3095V12.5H22.722V16.3095C22.7216 16.6462 22.5877 16.9689 22.3497 17.207C22.1116 17.445 21.7888 17.579 21.4521 17.5793ZM14.1505 15.3571C14.1505 15.5455 14.0947 15.7296 13.9901 15.8862C13.8854 16.0428 13.7367 16.1649 13.5626 16.237C13.3887 16.309 13.1971 16.328 13.0124 16.2912C12.8277 16.2545 12.6579 16.1637 12.5248 16.0305C12.3916 15.8974 12.3009 15.7276 12.2641 15.5429C12.2273 15.3582 12.2462 15.1666 12.3183 14.9927C12.3904 14.8186 12.5125 14.6699 12.6691 14.5652C12.8257 14.4606 13.0098 14.4048 13.1982 14.4048C13.4508 14.4048 13.693 14.505 13.8716 14.6837C14.0503 14.8623 14.1505 15.1045 14.1505 15.3571ZM21.1347 15.3571C21.1347 15.5455 21.0788 15.7296 20.9742 15.8862C20.8696 16.0428 20.7208 16.1649 20.5468 16.237C20.3728 16.309 20.1813 16.328 19.9965 16.2912C19.8118 16.2545 19.6421 16.1637 19.5089 16.0305C19.3757 15.8974 19.285 15.7276 19.2482 15.5429C19.2115 15.3582 19.2304 15.1666 19.3024 14.9927C19.3745 14.8186 19.4966 14.6699 19.6532 14.5652C19.8098 14.4606 19.9939 14.4048 20.1824 14.4048C20.4349 14.4048 20.6771 14.505 20.8558 14.6837C21.0344 14.8623 21.1347 15.1045 21.1347 15.3571Z" fill="#0077b2"/>
</g>
</svg>
