<?xml version="1.0" encoding="UTF-8"?>
<svg width="100px" height="100px" viewBox="0 0 100 100" version="1.1" xmlns="http://www.w3.org/2000/svg" xmlns:xlink="http://www.w3.org/1999/xlink">
    <title>insta</title>
    <g id="insta" stroke="none" stroke-width="1" fill="none" fill-rule="evenodd">
        <g id="ins" transform="translate(5.000000, 5.000000)" fill="#FFFFFF" fill-rule="nonzero">
            <path d="M45,0 C69.60051,0 89.5965102,19.7499951 89.9939702,44.2559549 L90,45 C90,69.60051 70.2500049,89.5965102 45.7440451,89.9939702 L45,90 C20.39949,90 0.4034898,70.2500049 0.006029847,45.7440451 L0,45 C0,20.39949 19.7499951,0.4034898 44.2559549,0.006029847 L45,0 Z M47.0669482,14.2839122 L42.9330454,14.2839122 C38.4858031,14.2883401 36.5573178,14.3096491 34.8206851,14.367621 L34.5244219,14.3779219 C34.3767958,14.3832556 34.2296023,14.3888669 34.0813761,14.3947684 L33.7831126,14.4069619 C33.3323495,14.4258434 32.8635,14.4474107 32.337,14.472 C29.07,14.625 26.838,15.138 24.876,15.903 C22.86,16.677 21.141,17.73 19.44,19.44 C17.73,21.15 16.686,22.86 15.894,24.885 C15.138,26.838 14.616,29.07 14.463,32.346 C14.4384107,32.8725 14.4168434,33.3413495 14.3979619,33.7921126 L14.3857684,34.0903761 C14.3798669,34.2386023 14.3742556,34.3857958 14.3689219,34.5334219 L14.358621,34.8296851 C14.3006491,36.5663178 14.2793401,38.4948031 14.2749186,42.9420454 L14.274,44.5689818 C14.274,44.7133632 14.274,44.8600179 14.274,45.009 L14.274,45.4490182 L14.274,45.4490182 L14.2749186,47.0759546 C14.2793401,51.5231969 14.3006491,53.4516822 14.358621,55.1883149 L14.3689219,55.4845781 C14.3742556,55.6322042 14.3798669,55.7793977 14.3857684,55.9276239 L14.3979619,56.2258874 C14.4168434,56.6766505 14.4384107,57.1455 14.463,57.672 C14.616,60.939 15.129,63.171 15.894,65.133 C16.677,67.14 17.73,68.859 19.44,70.56 C21.15,72.27 22.86,73.314 24.885,74.106 C26.838,74.862 29.07,75.384 32.346,75.537 C32.8725,75.5615893 33.3413495,75.5831566 33.7921126,75.6020381 L34.0903761,75.6142316 C34.2386023,75.6201331 34.3857958,75.6257444 34.5334219,75.6310781 L34.8296851,75.641379 C36.5663178,75.6993509 38.4948031,75.7206599 42.9420454,75.7250814 L44.5689818,75.726 C44.7133632,75.726 44.8600179,75.726 45.009,75.726 L45.4490182,75.726 L45.4490182,75.726 L47.0759546,75.7250814 C51.5231969,75.7206599 53.4516822,75.6993509 55.1883149,75.641379 L55.4845781,75.6310781 C55.6322042,75.6257444 55.7793977,75.6201331 55.9276239,75.6142316 L56.2258874,75.6020381 C56.6766505,75.5831566 57.1455,75.5615893 57.672,75.537 C60.939,75.384 63.171,74.871 65.133,74.106 C67.14,73.323 68.859,72.27 70.56,70.56 C72.27,68.85 73.314,67.14 74.106,65.115 C74.862,63.162 75.384,60.93 75.537,57.654 C75.5615893,57.1275 75.5831566,56.6586505 75.6020381,56.2078874 L75.6142316,55.9096239 C75.6201331,55.7613977 75.6257444,55.6142042 75.6310781,55.4665781 L75.641379,55.1703149 C75.6993509,53.4336822 75.7206599,51.5051969 75.7250814,47.0579546 L75.726,45.4310182 C75.726,45.2866368 75.726,45.1399821 75.726,44.991 L75.726,44.5509818 L75.726,44.5509818 L75.7250814,42.9240454 C75.7206599,38.4768031 75.6993509,36.5483178 75.641379,34.8116851 L75.6310781,34.5154219 C75.6257444,34.3677958 75.6201331,34.2206023 75.6142316,34.0723761 L75.6020381,33.7741126 C75.5831566,33.3233495 75.5615893,32.8545 75.537,32.328 C75.384,29.061 74.871,26.829 74.106,24.867 C73.323,22.86 72.27,21.141 70.56,19.44 C68.85,17.73 67.14,16.686 65.115,15.894 C63.162,15.138 60.93,14.616 57.654,14.463 C54.6786964,14.3318571 53.5471502,14.2902895 47.0669482,14.2839122 Z M55.2210727,19.9040227 L55.5155489,19.9148204 L55.5155489,19.9148204 L55.811583,19.9264463 L55.811583,19.9264463 L56.1119144,19.9389291 C56.5164387,19.9561567 56.9397273,19.9757455 57.411,19.998 C60.408,20.133 62.037,20.637 63.117,21.06 C64.548,21.618 65.574,22.284 66.645,23.355 C67.716,24.426 68.382,25.452 68.94,26.883 C69.363,27.963 69.858,29.592 70.002,32.589 C70.0229455,33.0602727 70.041606,33.4835613 70.0582031,33.8880856 L70.0702675,34.188417 C70.0780571,34.3869011 70.0853447,34.5825204 70.0921581,34.7789273 L70.1020258,35.074585 C70.1559664,36.7585 70.1766392,38.631266 70.1812562,42.9359572 L70.1812562,47.0640428 C70.1775074,51.6219512 70.1583352,53.4534105 70.0959773,55.2210727 L70.0851796,55.5155489 L70.0851796,55.5155489 L70.0735537,55.811583 L70.0735537,55.811583 L70.0610709,56.1119144 C70.0438433,56.5164387 70.0242545,56.9397273 70.002,57.411 C69.867,60.408 69.363,62.037 68.94,63.117 C68.382,64.548 67.716,65.574 66.645,66.645 C65.574,67.716 64.548,68.382 63.117,68.94 C62.037,69.363 60.408,69.858 57.411,70.002 C56.9397273,70.0229455 56.5164387,70.041606 56.1119144,70.0582031 L55.811583,70.0702675 C55.6130989,70.0780571 55.4174796,70.0853447 55.2210727,70.0921581 L54.925415,70.1020258 C53.2415,70.1559664 51.368734,70.1766392 47.0640428,70.1810533 L45.440108,70.182 C45.2957564,70.182 45.1490727,70.182 45,70.182 L44.559892,70.182 L44.559892,70.182 L42.9359572,70.1812562 C38.3780488,70.1775074 36.5465895,70.1583352 34.7789273,70.0959773 L34.4844511,70.0851796 L34.4844511,70.0851796 L34.188417,70.0735537 L34.188417,70.0735537 L33.8880856,70.0610709 C33.4835613,70.0438433 33.0602727,70.0242545 32.589,70.002 C29.592,69.867 27.963,69.363 26.883,68.94 C25.452,68.382 24.426,67.716 23.355,66.645 C22.284,65.574 21.618,64.548 21.06,63.117 C20.637,62.037 20.142,60.408 19.998,57.411 C19.9770545,56.9397273 19.958394,56.5164387 19.9417969,56.1119144 L19.9297325,55.811583 C19.9219429,55.6130989 19.9146553,55.4174796 19.9078419,55.2210727 L19.8979742,54.925415 C19.8440336,53.2415 19.8233608,51.368734 19.8187438,47.0640428 L19.8187438,42.9359572 C19.8224926,38.3780488 19.8416648,36.5465895 19.9040227,34.7789273 L19.9148204,34.4844511 L19.9148204,34.4844511 L19.9264463,34.188417 L19.9264463,34.188417 L19.9389291,33.8880856 C19.9561567,33.4835613 19.9757455,33.0602727 19.998,32.589 C20.133,29.592 20.637,27.963 21.06,26.883 C21.618,25.452 22.284,24.426 23.355,23.355 C24.426,22.284 25.452,21.618 26.883,21.06 C27.963,20.637 29.592,20.142 32.589,19.998 C33.0602727,19.9757455 33.4835613,19.9561567 33.8880856,19.9389291 L34.188417,19.9264463 L34.188417,19.9264463 L34.4844511,19.9148204 L34.4844511,19.9148204 L34.7789273,19.9040227 C36.5465895,19.8416648 38.3780488,19.8224926 42.9359572,19.8187438 L47.0640428,19.8187438 C51.6219512,19.8224926 53.4534105,19.8416648 55.2210727,19.9040227 Z M45,29.223 C36.288,29.223 29.223,36.288 29.223,45 C29.223,53.712 36.288,60.777 45,60.777 C53.712,60.777 60.777,53.712 60.777,45 C60.777,36.288 53.712,29.223 45,29.223 Z M45,34.758 C50.652,34.758 55.242,39.339 55.242,45 C55.242,50.661 50.652,55.242 45,55.242 C39.348,55.242 34.758,50.661 34.758,45 C34.758,39.339 39.348,34.758 45,34.758 Z M61.398,24.912 C59.3600693,24.912 57.708,26.5640693 57.708,28.602 C57.708,30.6399307 59.3600693,32.292 61.398,32.292 C63.4359307,32.292 65.088,30.6399307 65.088,28.602 C65.088,26.5640693 63.4359307,24.912 61.398,24.912 Z" id="Combined-Shape"></path>
        </g>
    </g>
</svg>