<?xml version="1.0" encoding="UTF-8"?>
<svg width="100px" height="100px" viewBox="0 0 100 100" version="1.1" xmlns="http://www.w3.org/2000/svg" xmlns:xlink="http://www.w3.org/1999/xlink">
    <title>in</title>
    <g id="in" stroke="none" stroke-width="1" fill="none" fill-rule="evenodd">
        <g transform="translate(5.000000, 5.000000)" fill="#FFFFFF" fill-rule="nonzero" id="Shape">
            <path d="M45,0 C69.8361328,0 90,20.1638672 90,45 C90,69.8361328 69.8361328,90 45,90 C20.1638672,90 0,69.8361328 0,45 C0,20.1638672 20.1638672,0 45,0 Z M30.9309961,70.2898242 L30.9309961,35.1474609 L19.2478711,35.1474609 L19.2478711,70.2898242 L30.9309961,70.2898242 Z M73.0516992,70.2898242 L73.0516992,50.137207 C73.0516992,39.3426563 67.2883594,34.3211133 59.6028516,34.3211133 C53.4056836,34.3211133 50.6297461,37.7293359 49.0754883,40.123125 L49.0754883,35.1474609 L37.3953516,35.1474609 C37.5502148,38.4445898 37.3953516,70.2898242 37.3953516,70.2898242 L49.0753125,70.2898242 L49.0753125,50.6638477 C49.0753125,49.6133789 49.1508984,48.5632617 49.4604492,47.8125 C50.3033203,45.7145508 52.2267188,43.5411914 55.4537109,43.5411914 C59.6784375,43.5411914 61.3710352,46.7650195 61.3710352,51.487207 L61.3710352,70.2898242 L73.0516992,70.2898242 L73.0516992,70.2898242 Z M25.1683594,18.2021484 C21.1710937,18.2021484 18.5595117,20.8300781 18.5595117,24.2745117 C18.5595117,27.6463477 21.0916406,30.3466992 25.0136719,30.3466992 L25.089082,30.3466992 C29.1628125,30.3466992 31.698457,27.6463477 31.698457,24.2745117 C31.6228711,20.8300781 29.1629883,18.2021484 25.1683594,18.2021484 Z"></path>
        </g>
    </g>
</svg>