<svg width="27" height="20" viewBox="0 0 27 20" xmlns="http://www.w3.org/2000/svg">
<path d="M3.55556 4C3.86111 4 4.12268 4.11298 4.34028 4.33894C4.55787 4.5649 4.66667 4.83654 4.66667 5.15385C4.66667 5.47115 4.55787 5.74279 4.34028 5.96875C4.12268 6.19471 3.86111 6.30769 3.55556 6.30769C3.25 6.30769 2.98843 6.19471 2.77083 5.96875C2.55324 5.74279 2.44444 5.47115 2.44444 5.15385C2.44444 4.83654 2.55324 4.5649 2.77083 4.33894C2.98843 4.11298 3.25 4 3.55556 4ZM6.09028 15.6538L4.91667 13.6562C4.78704 13.4351 4.68981 13.2139 4.625 12.9928L4.22222 11.6082L3.00694 12.9279L1.94444 15.5745C1.89352 15.7043 1.81366 15.8077 1.70486 15.8846C1.59607 15.9615 1.47222 16 1.33333 16C1.14815 16 0.990741 15.9327 0.861111 15.7981C0.731482 15.6635 0.666667 15.5 0.666667 15.3077C0.666667 15.226 0.68287 15.1394 0.715278 15.0481L1.6875 12.5601C1.74768 12.4014 1.79514 12.2945 1.82986 12.2392C1.86458 12.1839 1.94213 12.0889 2.0625 11.9543L3.43056 10.4255L3.01389 8.39183L2.625 9.17788C2.55093 9.34135 2.44907 9.45913 2.31944 9.53125C2.29167 9.54567 1.8125 9.79808 0.881944 10.2885C0.659722 10.4038 0.513889 10.4615 0.444444 10.4615C0.314815 10.4615 0.208333 10.4183 0.125 10.3317C0.0416665 10.2452 0 10.1346 0 10C0 9.80288 0.0879631 9.65625 0.263889 9.5601L1.85417 8.68029L2.47917 7.19471C2.59491 6.93029 2.74768 6.78606 2.9375 6.76202L4.52778 6.57452C4.67593 6.5601 4.875 6.60577 5.125 6.71154L6.80556 7.40385C6.89815 7.44231 6.98843 7.50721 7.07639 7.59856C7.16435 7.6899 7.22222 7.78365 7.25 7.87981C7.61574 8.86058 7.85648 9.51442 7.97222 9.84135C7.99074 9.88462 8 9.9375 8 10C8 10.125 7.95602 10.2332 7.86806 10.3245C7.78009 10.4159 7.67593 10.4615 7.55556 10.4615C7.46296 10.4615 7.36921 10.4387 7.27431 10.393C7.1794 10.3474 7.11806 10.2885 7.09028 10.2163L6.38194 8.28365L4.92361 7.71394L5.94444 12.6683L7.25 14.976C7.30556 15.0865 7.33333 15.1971 7.33333 15.3077C7.33333 15.5 7.26852 15.6635 7.13889 15.7981C7.00926 15.9327 6.85185 16 6.66667 16C6.41667 16 6.22454 15.8846 6.09028 15.6538Z" fill="inherit" stroke="none" />
<path d="M23.5714 0H12.8571C12.0996 0.000874336 11.3734 0.302175 10.8378 0.837803C10.3022 1.37343 10.0009 2.09965 10 2.85714V14.2857C10.0009 15.0432 10.3022 15.7694 10.8378 16.3051C11.3734 16.8407 12.0996 17.142 12.8571 17.1429H13.9286L12.6429 18.8571C12.5292 19.0087 12.4804 19.1992 12.5072 19.3867C12.534 19.5743 12.6342 19.7435 12.7857 19.8571C12.9373 19.9708 13.1278 20.0196 13.3153 19.9928C13.5028 19.966 13.672 19.8658 13.7857 19.7143L15.7143 17.1429H20.7143L22.6429 19.7143C22.7565 19.8658 22.9257 19.966 23.1133 19.9928C23.3008 20.0196 23.4913 19.9708 23.6429 19.8571C23.7944 19.7435 23.8946 19.5743 23.9214 19.3867C23.9482 19.1992 23.8994 19.0087 23.7857 18.8571L22.5 17.1429H23.5714C24.3289 17.142 25.0551 16.8407 25.5908 16.3051C26.1264 15.7694 26.4277 15.0432 26.4286 14.2857V2.85714C26.4277 2.09965 26.1264 1.37343 25.5908 0.837803C25.0551 0.302175 24.3289 0.000874336 23.5714 0ZM11.4286 8.57143V5H17.5V8.57143H11.4286ZM18.9286 5H25V8.57143H18.9286V5ZM12.8571 1.42857H23.5714C23.9502 1.429 24.3133 1.57964 24.5811 1.84746C24.8489 2.11528 24.9996 2.47839 25 2.85714V3.57143H11.4286V2.85714C11.429 2.47839 11.5796 2.11528 11.8475 1.84746C12.1153 1.57964 12.4784 1.429 12.8571 1.42857ZM23.5714 15.7143H12.8571C12.4784 15.7139 12.1153 15.5632 11.8475 15.2954C11.5796 15.0276 11.429 14.6645 11.4286 14.2857V10H25V14.2857C24.9996 14.6645 24.8489 15.0276 24.5811 15.2954C24.3133 15.5632 23.9502 15.7139 23.5714 15.7143ZM15.3571 13.2143C15.3571 13.4262 15.2943 13.6333 15.1766 13.8095C15.0588 13.9857 14.8915 14.1231 14.6957 14.2042C14.5 14.2852 14.2845 14.3065 14.0767 14.2651C13.8689 14.2238 13.6779 14.1217 13.5281 13.9719C13.3783 13.8221 13.2762 13.6311 13.2349 13.4233C13.1935 13.2155 13.2147 13 13.2958 12.8043C13.3769 12.6085 13.5143 12.4412 13.6905 12.3234C13.8667 12.2057 14.0738 12.1429 14.2857 12.1429C14.5699 12.1429 14.8424 12.2557 15.0433 12.4567C15.2443 12.6576 15.3571 12.9301 15.3571 13.2143ZM23.2143 13.2143C23.2143 13.4262 23.1514 13.6333 23.0337 13.8095C22.916 13.9857 22.7486 14.1231 22.5529 14.2042C22.3571 14.2852 22.1417 14.3065 21.9338 14.2651C21.726 14.2238 21.5351 14.1217 21.3852 13.9719C21.2354 13.8221 21.1334 13.6311 21.092 13.4233C21.0507 13.2155 21.0719 13 21.153 12.8043C21.2341 12.6085 21.3714 12.4412 21.5476 12.3234C21.7238 12.2057 21.9309 12.1429 22.1429 12.1429C22.427 12.1429 22.6995 12.2557 22.9005 12.4567C23.1014 12.6576 23.2143 12.9301 23.2143 13.2143Z" fill="inherit" stroke="none" />
</svg>
