<svg width="25" height="25" viewBox="0 0 25 25" fill="none" xmlns="http://www.w3.org/2000/svg">
<g id="Frame">
<path id="Vector" d="M4.12925 7.16663C4.40085 7.16663 4.63335 7.26705 4.82678 7.46791C5.02019 7.66876 5.1169 7.91022 5.1169 8.19227C5.1169 8.47431 5.02019 8.71577 4.82678 8.91663C4.63335 9.11748 4.40085 9.21791 4.12925 9.21791C3.85764 9.21791 3.62513 9.11748 3.43171 8.91663C3.2383 8.71577 3.14159 8.47431 3.14159 8.19227C3.14159 7.91022 3.2383 7.66876 3.43171 7.46791C3.62513 7.26705 3.85764 7.16663 4.12925 7.16663ZM6.38233 17.5256L5.33912 15.7499C5.2239 15.5534 5.13747 15.3568 5.07986 15.1602L4.72183 13.9295L3.64159 15.1025L2.69714 17.4551C2.65188 17.5704 2.58089 17.6624 2.48418 17.7307C2.38748 17.7991 2.27739 17.8333 2.15393 17.8333C1.98933 17.8333 1.84941 17.7735 1.73418 17.6538C1.61896 17.5342 1.56134 17.3888 1.56134 17.2179C1.56134 17.1453 1.57575 17.0683 1.60455 16.9872L2.46875 14.7756C2.52224 14.6345 2.56443 14.5395 2.59529 14.4904C2.62615 14.4412 2.69509 14.3568 2.80208 14.2371L4.01814 12.8782L3.64776 11.0705L3.30208 11.7692C3.23624 11.9145 3.1457 12.0192 3.03047 12.0833C3.00579 12.0961 2.57986 12.3205 1.7527 12.7564C1.55517 12.8589 1.42554 12.9102 1.36381 12.9102C1.24859 12.9102 1.15393 12.8718 1.07986 12.7948C1.00579 12.7179 0.96875 12.6196 0.96875 12.5C0.96875 12.3247 1.04694 12.1944 1.20332 12.1089L2.6169 11.3269L3.17246 10.0064C3.27534 9.77133 3.41113 9.64312 3.57986 9.62175L4.99344 9.45509C5.12513 9.44227 5.30208 9.48287 5.52431 9.57688L7.01814 10.1923C7.10044 10.2265 7.18069 10.2841 7.25887 10.3653C7.33706 10.4465 7.3885 10.5299 7.41319 10.6153C7.7383 11.4871 7.95229 12.0683 8.05517 12.3589C8.07163 12.3974 8.07986 12.4444 8.07986 12.5C8.07986 12.6111 8.04077 12.7072 7.96258 12.7884C7.88439 12.8696 7.7918 12.9102 7.6848 12.9102C7.60249 12.9102 7.51916 12.8899 7.4348 12.8493C7.35044 12.8088 7.29591 12.7564 7.27122 12.6922L6.64159 10.9743L5.34529 10.4679L6.2527 14.8718L7.41319 16.9231C7.46258 17.0213 7.48727 17.1196 7.48727 17.2179C7.48727 17.3888 7.42966 17.5342 7.31443 17.6538C7.1992 17.7735 7.05928 17.8333 6.89468 17.8333C6.67246 17.8333 6.50167 17.7307 6.38233 17.5256Z" fill="#0077B2"/>
<path id="Vector_2" d="M21.9209 3.61108H12.3971C11.7237 3.61186 11.0782 3.87968 10.6021 4.3558C10.126 4.83191 9.85822 5.47744 9.85742 6.15076V16.3095C9.85822 16.9828 10.126 17.6283 10.6021 18.1045C11.0782 18.5806 11.7237 18.8484 12.3971 18.8492H13.3495L12.2067 20.3729C12.1056 20.5077 12.0622 20.677 12.086 20.8437C12.1099 21.0105 12.1989 21.1609 12.3336 21.2618C12.4684 21.3629 12.6377 21.4063 12.8044 21.3825C12.971 21.3586 13.1214 21.2696 13.2225 21.1349L14.9368 18.8492H19.3812L21.0956 21.1349C21.1965 21.2696 21.3469 21.3586 21.5137 21.3825C21.6804 21.4063 21.8497 21.3629 21.9844 21.2618C22.1191 21.1609 22.2082 21.0105 22.232 20.8437C22.2558 20.677 22.2124 20.5077 22.1114 20.3729L20.9685 18.8492H21.9209C22.5942 18.8484 23.2397 18.5806 23.7159 18.1045C24.192 17.6283 24.4598 16.9828 24.4606 16.3095V6.15076C24.4598 5.47744 24.192 4.83191 23.7159 4.3558C23.2397 3.87968 22.5942 3.61186 21.9209 3.61108ZM11.1273 11.2301V8.05553H16.5241V11.2301H11.1273ZM17.794 8.05553H23.1908V11.2301H17.794V8.05553ZM12.3971 4.88092H21.9209C22.2576 4.88131 22.5804 5.01521 22.8184 5.25327C23.0564 5.49133 23.1904 5.8141 23.1908 6.15076V6.78569H11.1273V6.15076C11.1276 5.8141 11.2615 5.49133 11.4996 5.25327C11.7377 5.01521 12.0604 4.88131 12.3971 4.88092ZM21.9209 17.5793H12.3971C12.0604 17.579 11.7377 17.445 11.4996 17.207C11.2615 16.9689 11.1276 16.6462 11.1273 16.3095V12.5H23.1908V16.3095C23.1904 16.6462 23.0564 16.9689 22.8184 17.207C22.5804 17.445 22.2576 17.579 21.9209 17.5793ZM14.6193 15.3571C14.6193 15.5455 14.5635 15.7296 14.4588 15.8862C14.3541 16.0428 14.2054 16.1649 14.0314 16.237C13.8574 16.309 13.6659 16.328 13.4812 16.2912C13.2964 16.2545 13.1267 16.1637 12.9935 16.0305C12.8604 15.8974 12.7696 15.7276 12.7329 15.5429C12.6961 15.3582 12.7149 15.1666 12.787 14.9927C12.8591 14.8186 12.9812 14.6699 13.1379 14.5652C13.2945 14.4606 13.4786 14.4048 13.6669 14.4048C13.9196 14.4048 14.1618 14.505 14.3404 14.6837C14.519 14.8623 14.6193 15.1045 14.6193 15.3571ZM21.6035 15.3571C21.6035 15.5455 21.5476 15.7296 21.4429 15.8862C21.3383 16.0428 21.1895 16.1649 21.0156 16.237C20.8415 16.309 20.65 16.328 20.4652 16.2912C20.2805 16.2545 20.1108 16.1637 19.9776 16.0305C19.8444 15.8974 19.7538 15.7276 19.717 15.5429C19.6803 15.3582 19.6991 15.1666 19.7712 14.9927C19.8433 14.8186 19.9653 14.6699 20.122 14.5652C20.2786 14.4606 20.4627 14.4048 20.6511 14.4048C20.9036 14.4048 21.1459 14.505 21.3245 14.6837C21.5031 14.8623 21.6035 15.1045 21.6035 15.3571Z" fill="#0077B2"/>
</g>
</svg>
