<?xml version="1.0" encoding="UTF-8"?>
<svg width="100px" height="100px" viewBox="0 0 100 100" version="1.1" xmlns="http://www.w3.org/2000/svg" xmlns:xlink="http://www.w3.org/1999/xlink">
    <title>twt</title>
    <g id="twt" stroke="none" stroke-width="1" fill="none" fill-rule="evenodd">
        <g id="tw" transform="translate(5.000000, 5.000000)" fill="#FFFFFF" fill-rule="nonzero">
            <path d="M45,0 C69.60051,0 89.5965102,19.7499951 89.9939702,44.2559549 L90,45 C90,69.60051 70.2500049,89.5965102 45.7440451,89.9939702 L45,90 C20.39949,90 0.4034898,70.2500049 0.006029847,45.7440451 L0,45 C0,20.39949 19.7499951,0.4034898 44.2559549,0.006029847 L45,0 Z M47.925,25.281 C44.928,28.098 43.659,32.301 44.586,36.306 C35.307,35.838 26.658,31.455 20.799,24.246 C17.739,29.52 19.296,36.261 24.372,39.654 C22.536,39.6 20.736,39.105 19.134,38.214 L19.134,38.358 L19.134,38.358 C19.134,43.848 23.004,48.582 28.395,49.671 C26.694,50.13 24.912,50.202 23.184,49.869 C24.696,54.567 29.025,57.789 33.966,57.888 C29.88,61.101 24.831,62.847 19.638,62.838 C18.72,62.838 17.802,62.784 16.893,62.667 C22.149,66.06 28.296,67.86 34.56,67.851 L34.56,67.86 C55.782,67.86 67.401,50.274 67.401,35.019 C67.401,34.524 67.401,34.02 67.365,33.525 C69.624,31.887 71.577,29.871 73.125,27.549 C71.019,28.485 68.787,29.097 66.501,29.367 C68.913,27.927 70.713,25.659 71.577,22.986 C69.309,24.327 66.834,25.281 64.251,25.785 C59.877,21.141 52.569,20.916 47.925,25.281 Z" id="Combined-Shape"></path>
        </g>
    </g>
</svg>